<svg width="1024" height="1024" viewBox="0 0 1024 1024" fill="none" xmlns="http://www.w3.org/2000/svg">
  <!-- squircle background -->
  <rect width="1024" height="1024" rx="230" fill="#F5F3EE"/>
  <!-- subtle top sheen -->
  <rect width="1024" height="1024" rx="230" fill="url(#topSheen)"/>

  <!-- Sidebar column -->
  <rect x="236" y="308" width="96" height="408" rx="20" fill="#2D5E5A"/>

  <!-- Image grid 2×3 -->
  <!-- Row 1 -->
  <rect x="380" y="308" width="136" height="136" rx="18" fill="#2D5E5A" opacity="0.85"/>
  <rect x="540" y="308" width="136" height="136" rx="18" fill="#2D5E5A" opacity="0.52"/>
  <!-- Row 2 -->
  <rect x="380" y="464" width="136" height="136" rx="18" fill="#2D5E5A" opacity="0.38"/>
  <rect x="540" y="464" width="136" height="136" rx="18" fill="#2D5E5A" opacity="0.68"/>
  <!-- Row 3 -->
  <rect x="380" y="620" width="136" height="96" rx="18" fill="#2D5E5A" opacity="0.58"/>
  <rect x="540" y="620" width="136" height="96" rx="18" fill="#2D5E5A" opacity="0.33"/>

  <!-- Profile text lines -->
  <rect x="716" y="340" width="72" height="22" rx="11" fill="#2D5E5A" opacity="0.90"/>
  <rect x="716" y="384" width="72" height="22" rx="11" fill="#2D5E5A" opacity="0.62"/>
  <rect x="716" y="444" width="72" height="16" rx="8" fill="#2D5E5A" opacity="0.42"/>
  <rect x="716" y="476" width="56" height="16" rx="8" fill="#2D5E5A" opacity="0.32"/>
  <rect x="716" y="508" width="64" height="16" rx="8" fill="#2D5E5A" opacity="0.28"/>
  <rect x="716" y="556" width="44" height="16" rx="8" fill="#2D5E5A" opacity="0.42"/>
  <rect x="716" y="588" width="72" height="16" rx="8" fill="#2D5E5A" opacity="0.32"/>
  <rect x="716" y="636" width="56" height="16" rx="8" fill="#2D5E5A" opacity="0.52"/>
  <rect x="716" y="668" width="40" height="16" rx="8" fill="#2D5E5A" opacity="0.28"/>

  <defs>
    <linearGradient id="topSheen" x1="512" y1="0" x2="512" y2="320" gradientUnits="userSpaceOnUse">
      <stop offset="0" stop-color="white" stop-opacity="0.07"/>
      <stop offset="1" stop-color="white" stop-opacity="0"/>
    </linearGradient>
  </defs>
</svg>
